<svg width="41" height="42" viewBox="0 0 41 42" fill="none" xmlns="http://www.w3.org/2000/svg">
<rect width="40.1043" height="41.5018" fill="black" fill-opacity="0" transform="translate(0.249023 0.249023)"/>
<path fill-rule="evenodd" clip-rule="evenodd" d="M31.5 8.09663C31.0496 5.6965 28.7388 4.11589 26.3387 4.56623C23.9386 5.01658 22.358 7.32734 22.8083 9.72747C23.2587 12.1276 25.5694 13.7082 27.9696 13.2579C30.3697 12.8075 31.9503 10.4968 31.5 8.09663ZM25.7855 1.61769C29.814 0.861795 33.6926 3.51482 34.4485 7.54338C35.2044 11.5719 32.5514 15.4505 28.5228 16.2064C24.4942 16.9623 20.6157 14.3093 19.8598 10.2807C19.1039 6.25215 21.7569 2.37358 25.7855 1.61769Z" fill="#92B4EA"/>
<path fill-rule="evenodd" clip-rule="evenodd" d="M36.0361 32.2724C35.5857 29.8723 33.275 28.2917 30.8749 28.742C28.4747 29.1924 26.8941 31.5031 27.3445 33.9032C27.7948 36.3034 30.1056 37.884 32.5057 37.4336C34.9058 36.9833 36.4864 34.6725 36.0361 32.2724ZM30.3216 25.7935C34.3502 25.0376 38.2287 27.6906 38.9846 31.7192C39.7405 35.7477 37.0875 39.6263 33.0589 40.3822C29.0304 41.1381 25.1518 38.4851 24.3959 34.4565C23.64 30.4279 26.293 26.5494 30.3216 25.7935Z" fill="#92B4EA"/>
<path fill-rule="evenodd" clip-rule="evenodd" d="M13.2578 24.4963C12.8074 22.0962 10.4967 20.5155 8.09653 20.9659C5.6964 21.4162 4.11579 23.727 4.56614 26.1271C5.01648 28.5273 7.32724 30.1079 9.72737 29.6575C12.1275 29.2072 13.7081 26.8964 13.2578 24.4963ZM7.54329 18.0173C11.5719 17.2615 15.4504 19.9145 16.2063 23.943C16.9622 27.9716 14.3092 31.8502 10.2806 32.6061C6.25205 33.362 2.37348 30.7089 1.61759 26.6804C0.861697 22.6518 3.51472 18.7732 7.54329 18.0173Z" fill="#92B4EA"/>
</svg>
