<svg width="48" height="40" viewBox="0 0 48 40" fill="none" xmlns="http://www.w3.org/2000/svg">
<rect width="48" height="40" fill="black" fill-opacity="0"/>
<path d="M46.487 12.2031V12.2787L46.4936 12.3438C46.4936 12.3446 46.4937 12.3456 46.4938 12.3467C46.4945 12.357 46.4959 12.3799 46.4972 12.4149C46.4998 12.4849 46.502 12.6036 46.497 12.7679C46.4871 13.0965 46.4487 13.6081 46.3285 14.2786C46.0886 15.6172 45.5204 17.602 44.1874 20.0395C41.5849 24.7989 36.0192 31.3677 24.1094 38.2097L24 38.1286L23.8915 38.2091C12.6282 31.7384 7.03936 25.5126 4.26511 20.8329C1.42798 16.047 1.48529 12.7958 1.50456 12.3889L1.50712 12.335L1.50578 12.281C1.50487 12.2438 1.50305 12.2122 1.50161 12.1904L1.50006 12.1684C1.51953 6.32696 6.46326 1.5 12.6821 1.5C17.0693 1.5 20.833 3.91899 22.6662 7.40352L23.994 9.92731L25.3214 7.40327C27.1536 3.91902 30.9172 1.5 35.3044 1.5C41.5361 1.5 46.487 6.34609 46.487 12.2031ZM23.2307 38.7084L23.2304 38.7086C23.2313 38.7081 23.2317 38.7078 23.2313 38.708L23.2307 38.7084Z" stroke="#C4C0EF" stroke-width="3"/>
</svg>
