<svg width="136" height="136" viewBox="0 0 136 136" fill="none" xmlns="http://www.w3.org/2000/svg">
<rect width="136" height="136" fill="black" fill-opacity="0"/>
<path d="M0 0H136V136H0V0Z" fill="#15403D"/>
<path d="M38.5072 63.95L33.5112 75.9217H30.4952L26.887 66.559L23.2604 75.9217H20.2443L15.1929 63.95H17.9129L21.7801 73.5533L25.4623 63.95H28.2933L31.9755 73.5533L35.8427 63.95H38.5072Z" fill="#FCF8F5"/>
<path d="M46.6271 76.1623C45.0482 76.1623 43.6912 75.9156 42.5564 75.4222C41.4215 74.9287 40.5518 74.2194 39.9474 73.2943C39.3553 72.3568 39.0592 71.2404 39.0592 69.9451C39.0592 68.6499 39.3553 67.5335 39.9474 66.596C40.5518 65.6585 41.4215 64.9431 42.5564 64.4496C43.6912 63.9562 45.0482 63.7095 46.6271 63.7095C48.2184 63.7095 49.5753 63.9562 50.6979 64.4496C51.8327 64.9431 52.6962 65.6585 53.2883 66.596C53.8928 67.5335 54.195 68.6499 54.195 69.9451C54.195 71.2404 53.8928 72.3568 53.2883 73.2943C52.6962 74.2194 51.8327 74.9287 50.6979 75.4222C49.563 75.9156 48.2061 76.1623 46.6271 76.1623ZM46.6271 74.0344C47.5646 74.0344 48.4096 73.8864 49.1621 73.5903C49.9269 73.2819 50.5252 72.8193 50.9569 72.2026C51.401 71.5858 51.623 70.8333 51.623 69.9451C51.623 69.057 51.401 68.3107 50.9569 67.7062C50.5252 67.0895 49.9269 66.633 49.1621 66.337C48.4096 66.0286 47.5646 65.8744 46.6271 65.8744C45.6773 65.8744 44.8199 66.0286 44.0551 66.337C43.3027 66.633 42.6982 67.0895 42.2418 67.7062C41.7977 68.323 41.5757 69.0693 41.5757 69.9451C41.5757 70.8333 41.7977 71.5858 42.2418 72.2026C42.6982 72.807 43.3027 73.2634 44.0551 73.5718C44.8199 73.8802 45.6773 74.0344 46.6271 74.0344Z" fill="#FCF8F5"/>
<path d="M66.293 70.7038C67.2676 70.7778 67.9707 70.9875 68.4024 71.3329C68.8342 71.6783 69.05 72.2581 69.05 73.0722V75.9217H66.5891V73.2388C66.5891 72.585 66.3486 72.1347 65.8675 71.888C65.3864 71.6413 64.6277 71.5179 63.5915 71.5179H59.0582V75.9217H56.5973V63.95H64.7203C66.1512 63.95 67.2737 64.2523 68.0879 64.8567C68.902 65.4488 69.3091 66.3555 69.3091 67.5767C69.3091 69.3284 68.3037 70.3707 66.293 70.7038ZM64.7203 69.5566C65.3617 69.5566 65.8736 69.39 66.256 69.057C66.6508 68.7239 66.8481 68.2737 66.8481 67.7062C66.8481 67.1881 66.6508 66.7934 66.256 66.522C65.8736 66.2383 65.3617 66.0964 64.7203 66.0964H59.0582V69.5566H64.7203Z" fill="#FCF8F5"/>
<path d="M78.7305 63.95C81.2346 63.95 83.0295 64.499 84.115 65.5969C85.2005 66.6824 85.7433 68.1133 85.7433 69.8896C85.7433 71.0122 85.5027 72.0299 85.0217 72.9427C84.5529 73.8432 83.7943 74.5648 82.7457 75.1076C81.7095 75.6504 80.3711 75.9217 78.7305 75.9217H71.8843V63.95H78.7305ZM78.675 73.7939C80.3156 73.7939 81.4875 73.43 82.1906 72.7022C82.8938 71.9744 83.2453 71.0369 83.2453 69.8896C83.2453 68.7548 82.8938 67.8419 82.1906 67.1511C81.4875 66.448 80.3156 66.0964 78.675 66.0964H74.3452V73.7939H78.675Z" fill="#FCF8F5"/>
<path d="M89.9788 71.888C90.0528 72.5418 90.4414 73.0784 91.1446 73.4978C91.8477 73.9049 92.705 74.1084 93.7165 74.1084C94.5923 74.1084 95.2585 73.9666 95.7149 73.6828C96.1713 73.3868 96.3995 72.9797 96.3995 72.4616C96.3995 72.1039 96.2638 71.8202 95.9924 71.6105C95.7211 71.4008 95.3325 71.2342 94.8267 71.1109C94.321 70.9875 93.5932 70.858 92.6433 70.7223C91.0274 70.4509 89.7876 70.0685 88.9241 69.5751C88.0606 69.0693 87.6289 68.2983 87.6289 67.2622C87.6289 66.1766 88.0915 65.3131 89.0167 64.6717C89.9418 64.0302 91.2679 63.7095 92.9949 63.7095C94.6972 63.7095 96.0171 64.0796 96.9546 64.8197C97.8921 65.5475 98.3485 66.5529 98.3239 67.8358H95.9184C95.8814 67.145 95.5915 66.633 95.0488 66.3C94.506 65.9546 93.7844 65.7819 92.8839 65.7819C92.0204 65.7819 91.3419 65.9114 90.8485 66.1705C90.3551 66.4172 90.1084 66.7996 90.1084 67.3177C90.1084 67.7001 90.2379 68.0023 90.4969 68.2243C90.7683 68.434 91.1507 68.6006 91.6441 68.7239C92.1376 68.8473 92.9332 69.0015 94.0311 69.1865C95.0549 69.3469 95.9061 69.5442 96.5846 69.7786C97.263 70.0007 97.8058 70.3399 98.2128 70.7963C98.6199 71.2404 98.8235 71.8263 98.8235 72.5541C98.8235 73.7137 98.3917 74.608 97.5282 75.2371C96.6647 75.8662 95.351 76.1808 93.587 76.1808C92.2301 76.1808 91.0767 75.9464 90.1269 75.4777C89.1894 74.9966 88.4986 74.423 88.0545 73.7569C87.6104 73.0784 87.4192 72.4554 87.4809 71.888H89.9788Z" fill="#FCF8F5"/>
<path d="M23.3714 98.3664C21.7924 98.3664 20.4355 98.1197 19.3006 97.6262C18.1658 97.1328 17.2961 96.4235 16.6916 95.4983C16.0995 94.5608 15.8035 93.4445 15.8035 92.1492C15.8035 90.854 16.0995 89.7376 16.6916 88.8001C17.2961 87.8626 18.1658 87.1471 19.3006 86.6537C20.4355 86.1603 21.7924 85.9136 23.3714 85.9136C24.9627 85.9136 26.3196 86.1603 27.4421 86.6537C28.577 87.1471 29.4405 87.8626 30.0326 88.8001C30.637 89.7376 30.9393 90.854 30.9393 92.1492C30.9393 93.4445 30.637 94.5608 30.0326 95.4983C29.4405 96.4235 28.577 97.1328 27.4421 97.6262C26.3072 98.1197 24.9503 98.3664 23.3714 98.3664ZM23.3714 96.2385C24.3089 96.2385 25.1539 96.0905 25.9063 95.7944C26.6711 95.486 27.2694 95.0234 27.7012 94.4066C28.1453 93.7899 28.3673 93.0374 28.3673 92.1492C28.3673 91.2611 28.1453 90.5148 27.7012 89.9103C27.2694 89.2935 26.6711 88.8371 25.9063 88.5411C25.1539 88.2327 24.3089 88.0785 23.3714 88.0785C22.4215 88.0785 21.5642 88.2327 20.7994 88.5411C20.0469 88.8371 19.4425 89.2935 18.9861 89.9103C18.542 90.5271 18.3199 91.2734 18.3199 92.1492C18.3199 93.0374 18.542 93.7899 18.9861 94.4066C19.4425 95.0111 20.0469 95.4675 20.7994 95.7759C21.5642 96.0843 22.4215 96.2385 23.3714 96.2385Z" fill="#FCF8F5"/>
<path d="M35.8025 88.2265V91.4091H43.3519V93.3705H35.8025V98.1258H33.3415V86.1541H45.0172V88.2265H35.8025Z" fill="#FCF8F5"/>
<path d="M38.5072 108.358L33.5112 120.33H30.4952L26.887 110.967L23.2604 120.33H20.2443L15.1929 108.358H17.9129L21.7801 117.961L25.4623 108.358H28.2933L31.9755 117.961L35.8427 108.358H38.5072Z" fill="#FCF8F5"/>
<path d="M46.6271 120.57C45.0482 120.57 43.6912 120.324 42.5564 119.83C41.4215 119.337 40.5518 118.628 39.9474 117.702C39.3553 116.765 39.0592 115.649 39.0592 114.353C39.0592 113.058 39.3553 111.942 39.9474 111.004C40.5518 110.067 41.4215 109.351 42.5564 108.858C43.6912 108.364 45.0482 108.118 46.6271 108.118C48.2184 108.118 49.5753 108.364 50.6979 108.858C51.8327 109.351 52.6962 110.067 53.2883 111.004C53.8928 111.942 54.195 113.058 54.195 114.353C54.195 115.649 53.8928 116.765 53.2883 117.702C52.6962 118.628 51.8327 119.337 50.6979 119.83C49.563 120.324 48.2061 120.57 46.6271 120.57ZM46.6271 118.443C47.5646 118.443 48.4096 118.295 49.1621 117.998C49.9269 117.69 50.5252 117.228 50.9569 116.611C51.401 115.994 51.623 115.241 51.623 114.353C51.623 113.465 51.401 112.719 50.9569 112.114C50.5252 111.498 49.9269 111.041 49.1621 110.745C48.4096 110.437 47.5646 110.283 46.6271 110.283C45.6773 110.283 44.8199 110.437 44.0551 110.745C43.3027 111.041 42.6982 111.498 42.2418 112.114C41.7977 112.731 41.5757 113.477 41.5757 114.353C41.5757 115.241 41.7977 115.994 42.2418 116.611C42.6982 117.215 43.3027 117.672 44.0551 117.98C44.8199 118.288 45.6773 118.443 46.6271 118.443Z" fill="#FCF8F5"/>
<path d="M74.083 108.358V120.33H71.622V112.707L66.7186 120.33H63.9616L59.0582 112.725V120.33H56.5973V108.358H59.0582L65.3309 118.202L71.622 108.358H74.083Z" fill="#FCF8F5"/>
<path d="M86.0849 120.33L82.6988 115.945L79.2201 120.33H76.2226L81.3295 114.242L76.4076 108.358H79.4052L82.7543 112.558L86.1589 108.358H89.1564L84.1235 114.224L89.212 120.33H86.0849Z" fill="#FCF8F5"/>
<path d="M105.185 108.358V120.33H102.725L93.8244 111.652V120.33H91.3634V108.358H93.8244L102.725 117.073V108.358H105.185Z" fill="#FCF8F5"/>
</svg>
