<svg width="70" height="60" viewBox="0 0 70 60" fill="none" xmlns="http://www.w3.org/2000/svg">
<rect width="69.4188" height="60" fill="black" fill-opacity="0"/>
<path d="M37.2473 24.1297C40.1856 22.1211 43.3252 20.3966 46.5813 19.0033C53.3563 16.104 60.5528 14.6334 67.9717 14.6334C68.7705 14.6334 69.4187 13.9786 69.4187 13.1704C69.4187 12.3622 68.7705 11.7074 67.9717 11.7074C51.6637 11.7074 36.9296 18.5369 26.4134 29.5241L24.1784 24.9411C25.6931 22.9239 27.3435 21.0043 29.1124 19.2144C31.5995 16.6966 34.3366 14.4116 37.2474 12.4223C40.1857 10.4137 43.3253 8.68918 46.5815 7.29586C53.3564 4.39659 60.5529 2.92712 67.9719 2.92712C68.7706 2.92712 69.4188 2.27121 69.4188 1.46301C69.4188 0.654817 68.7706 0 67.9719 0C49.6703 0 33.3559 8.60028 22.7549 22.0235L21.291 19.0203L14.7108 32.5102L0 34.673L10.6454 45.1724L8.13282 60L21.2908 52.999L34.4487 60L31.9362 45.1726L42.5816 34.6732L39.7089 34.2509C41.9163 32.909 44.2192 31.7213 46.5813 30.7097C53.3563 27.8104 60.5528 26.341 67.9717 26.341C68.7705 26.341 69.4187 25.6861 69.4187 24.8779C69.4187 24.0697 68.7705 23.4138 67.9717 23.4138C55.8688 23.4138 44.6323 27.177 35.3429 33.6079L27.871 32.5103L27.7777 32.3217C28.2162 31.8458 28.659 31.3785 29.1124 30.9197C31.5993 28.404 34.3364 26.119 37.2473 24.1297ZM36.366 36.716L28.8284 44.1501L30.6079 54.6495L21.2908 49.6935L11.9736 54.6495L13.7531 44.1501L6.21554 36.716L16.6321 35.1854L21.2906 25.6346L25.9491 35.1854L36.366 36.716Z" fill="#FFB7A9"/>
</svg>
